# xmcd
#
# Track frame offsets:
#	150
#	17227
#	34727
#	51670
#	70065
#	85148
#	104497
#	116990
#	132755
#	149082
#	166087
#	180937
#	193372
#
# Disc length: 2787 seconds
#
# Revision: 1
# Processed by: cddbd v1.5.2PL0 Copyright (c) Steve Scherf et al.
# Submitted via: EasyCDDAExtractor 15.3.0.1
#
DISCID=c00ae10d
DTITLE=Thalia - Latina
DYEAR=2016
DGENRE=Latin
TTITLE0=Desde Esa Noche (Featuring Maluma)
TTITLE1=La Movidita
TTITLE2=De Ti (Featuring Silvestre Dangond)
TTITLE3=Vuelveme A Querer
TTITLE4=Todavia Te Quiero (Featuring De La Ghetto)
TTITLE5=Frutas (Featuring Chiky Bom Bom ''La Pantera'')
TTITLE6=Pena Negra
TTITLE7=Tiki Tiki Tiki Ta (Uno Momento)
TTITLE8=Todo (Poso Se Thelo) (Featuring Omi And Jacob Forever)
TTITLE9=Te Encontrare
TTITLE10=Poquita Fe
TTITLE11=Enemigos
TTITLE12=Vivir Junto A Ti
EXTD=
EXTT0=
EXTT1=
EXTT2=
EXTT3=
EXTT4=
EXTT5=
EXTT6=
EXTT7=
EXTT8=
EXTT9=
EXTT10=
EXTT11=
EXTT12=
PLAYORDER=
